<?xml version="1.0" encoding="utf-8"?>
<!-- Generator: Adobe Illustrator 22.0.1, SVG Export Plug-In . SVG Version: 6.00 Build 0)  -->
<svg version="1.1" id="Layer_1" xmlns="http://www.w3.org/2000/svg" xmlns:xlink="http://www.w3.org/1999/xlink" x="0px" y="0px"
	 viewBox="0 0 3150 2100" style="enable-background:new 0 0 3150 2100;" xml:space="preserve">
<style type="text/css">
	.st0{fill:#FEE475;}
	.st1{fill:#FED425;}
	.st2{fill:#FFFFFF;}
	.st3{fill:#FEB724;}
	.st4{fill:#FB9D12;}
</style>
<g>
	
		<ellipse transform="matrix(0.7071 -0.7071 0.7071 0.7071 -281.1554 1421.2311)" class="st0" cx="1575" cy="1050" rx="174" ry="174"/>
	
		<ellipse transform="matrix(0.7071 -0.7071 0.7071 0.7071 -281.1554 1421.2311)" class="st1" cx="1575" cy="1050" rx="169.6" ry="169.6"/>
	<path class="st2" d="M1695.2,930.5l-239.8,239.8c16.1,16,35.3,28.7,56.7,37.3l220.3-220.3C1723.9,965.8,1711.2,946.5,1695.2,930.5z
		"/>
	<path class="st2" d="M1740.3,1087.8l-127.5,127.5C1676.1,1200.9,1725.9,1151.1,1740.3,1087.8z"/>
	<path class="st2" d="M1491.7,902.3l-64.4,64.4c-7.1,12.6-12.7,26.1-16.4,40.4l121.2-121.2C1517.8,889.6,1504.3,895.2,1491.7,902.3z
		"/>
	<path class="st2" d="M1672.9,911.6l-236.3,236.3c2.8,3.9,5.7,7.7,8.7,11.3l238.9-238.9C1680.5,917.2,1676.8,914.3,1672.9,911.6z"/>
	<circle class="st2" cx="1578.3" cy="1053.1" r="122.9"/>
	
		<ellipse transform="matrix(0.7071 -0.7071 0.7071 0.7071 -281.1554 1421.2311)" class="st3" cx="1575" cy="1050" rx="122.9" ry="122.9"/>
	<path class="st4" d="M1458.8,1056.7c0-67.9,55-122.9,122.9-122.9c32.2,0,61.5,12.4,83.5,32.7c-22.4-24.2-54.5-39.4-90.1-39.4
		c-67.9,0-122.9,55-122.9,122.9c0,35.6,15.2,67.7,39.4,90.1C1471.2,1118.2,1458.8,1088.9,1458.8,1056.7z"/>
	<path class="st2" d="M1575,882.7c95,0,172.1,76.1,173.9,170.7c0-1.1,0.1-2.2,0.1-3.3c0-96.1-77.9-174-174-174s-174,77.9-174,174
		c0,1.1,0.1,2.2,0.1,3.3C1402.9,958.8,1480,882.7,1575,882.7z"/>
</g>
<g>
	<g>
		<path class="st4" d="M1563.2,1119.6c-38.4,0-69.6-31.2-69.6-69.6c0-15.9,5.2-30.9,15.1-43.4c9.6-12.1,23.1-20.7,38-24.3
			c2.7-0.6,5.3,1,6,3.6c0.6,2.7-1,5.3-3.6,6c-12.8,3.1-24.4,10.5-32.6,20.9c-8.5,10.7-13,23.5-13,37.2c0,32.9,26.8,59.7,59.7,59.7
			c21.3,0,41.1-11.4,51.7-29.9c0.9-1.5,2.5-2.5,4.3-2.5l32.3,0c1.8,0,3.4,0.9,4.3,2.5c0.9,1.5,0.9,3.4,0,5
			c-9,15.5-23.4,26.9-40.6,32c-2.6,0.8-5.4-0.7-6.2-3.3c-0.8-2.6,0.7-5.4,3.3-6.2c11.8-3.5,22.1-10.5,29.7-20l-20.2,0
			C1609.2,1107.3,1587,1119.6,1563.2,1119.6z"/>
	</g>
</g>
<g>
	<g>
		<path class="st4" d="M1548.4,1099.2c-1.3,0-2.6-0.5-3.6-1.6c-12.2-13-18.9-29.9-18.9-47.7c0-38.4,31.2-69.6,69.6-69.6
			c24.8,0,47.9,13.3,60.3,34.8c0.9,1.5,0.9,3.4,0,5c-0.9,1.5-2.5,2.5-4.3,2.5l-32.3,0c-1.8,0-3.4-0.9-4.3-2.5
			c-3.3-5.7-7.4-10.7-12.4-15.1c-2.1-1.8-2.3-4.9-0.5-7c1.8-2.1,4.9-2.3,7-0.5c5,4.4,9.4,9.5,12.9,15.1l20.2,0
			c-11.2-14-28.4-22.4-46.6-22.4c-32.9,0-59.7,26.8-59.7,59.7c0,15.3,5.8,29.8,16.2,40.9c1.9,2,1.8,5.1-0.2,7
			C1550.8,1098.8,1549.6,1099.2,1548.4,1099.2z"/>
	</g>
</g>
</svg>
