<?xml version="1.0" encoding="utf-8"?>
<!-- Generator: Adobe Illustrator 22.0.1, SVG Export Plug-In . SVG Version: 6.00 Build 0)  -->
<svg version="1.1" id="Camada_1" xmlns="http://www.w3.org/2000/svg" xmlns:xlink="http://www.w3.org/1999/xlink" x="0px" y="0px"
	 viewBox="0 0 762 471.1" style="enable-background:new 0 0 762 471.1;" xml:space="preserve">
<style type="text/css">
	.st0{fill:#63C832;}
	.st1{fill:#136E37;}
</style>
<g>
	<path class="st0" d="M366.7,284.3c-69.7,0-126.4-56.7-126.4-126.4c0-28.9,9.5-56.1,27.5-78.7c17.5-21.9,42-37.6,69-44.2
		c4.8-1.2,9.7,1.8,10.9,6.6c1.2,4.8-1.8,9.7-6.6,10.9c-23.2,5.6-44.2,19.1-59.2,37.9c-15.4,19.4-23.6,42.7-23.6,67.5
		c0,59.8,48.6,108.4,108.4,108.4c38.6,0,74.6-20.8,93.9-54.2c1.6-2.8,4.6-4.5,7.8-4.5l58.7,0c3.2,0,6.2,1.7,7.8,4.5
		c1.6,2.8,1.6,6.2,0,9c-16.3,28.2-42.5,48.8-73.6,58c-4.8,1.4-9.8-1.3-11.2-6.1c-1.4-4.8,1.3-9.8,6.1-11.2
		c21.5-6.3,40.2-19,53.9-36.3l-36.7,0C450.3,261.9,409.9,284.3,366.7,284.3z"/>
</g>
<g>
	<path class="st1" d="M339.8,247.3c-2.4,0-4.8-1-6.6-2.8c-22.1-23.5-34.3-54.3-34.3-86.6c0-69.7,56.7-126.4,126.4-126.4
		c45,0,87,24.2,109.5,63.2c1.6,2.8,1.6,6.2,0,9c-1.6,2.8-4.6,4.5-7.8,4.5l-58.7,0c-3.2,0-6.2-1.7-7.8-4.5
		c-6-10.3-13.5-19.5-22.5-27.3c-3.7-3.3-4.1-9-0.8-12.7c3.3-3.7,9-4.1,12.7-0.8c9.1,8,17,17.2,23.5,27.4l36.6,0
		c-20.4-25.4-51.6-40.7-84.7-40.7c-59.8,0-108.4,48.6-108.4,108.4c0,27.7,10.4,54.1,29.4,74.2c3.4,3.6,3.2,9.3-0.4,12.7
		C344.2,246.5,342,247.3,339.8,247.3z"/>
</g>
<g>
	<path class="st1" d="M41.2,371.2c7.7-7.7,17.3-11.5,28.8-11.5c10.1,0,18.7,3,25.8,9l-7.9,9.2c-5-3.9-10.6-5.8-16.9-5.8
		c-7.8,0-14.3,2.6-19.4,7.9S44,391.8,44,399.3s2.5,13.9,7.5,19.3c5,5.3,11.2,8,18.7,8c7.7,0,14.1-2.5,19.3-7.6l8.4,9.5
		c-7.7,7-16.9,10.5-27.8,10.5c-11.5,0-21.1-3.8-28.8-11.5c-7.7-7.7-11.6-17.1-11.6-28.2C29.6,388.3,33.5,378.9,41.2,371.2z"/>
	<path class="st1" d="M118,386.8c6.1-6,13.4-8.9,22-8.9c8.6,0,16,3,22,8.9c6.1,6,9.1,13.2,9.1,21.6c0,8.4-3,15.5-9.1,21.5
		c-6.1,6-13.4,8.9-22,8.9c-8.6,0-16-3-22-8.9s-9.1-13.1-9.1-21.5C108.9,400,111.9,392.8,118,386.8z M127.5,421.1
		c3.5,3.4,7.7,5.2,12.6,5.2c4.9,0,9.1-1.7,12.6-5.2s5.2-7.6,5.2-12.6c0-4.9-1.7-9.1-5.2-12.6s-7.7-5.3-12.6-5.3
		c-4.9,0-9.1,1.8-12.6,5.3s-5.2,7.7-5.2,12.6C122.3,413.4,124,417.6,127.5,421.1z"/>
	<path class="st1" d="M187.6,379.1h13.1v8.6c1.6-2.8,3.9-5.2,7.1-7s6.5-2.8,10.1-2.8c9.1,0,15.2,3.7,18.5,11.1
		c1.9-3.3,4.7-6,8.3-8.1c3.6-2.1,7.3-3.1,10.9-3.1c14.8,0,22.3,8.7,22.3,26.1v33.8h-13.2v-32c0-4.8-0.8-8.5-2.5-11.2
		c-1.7-2.6-4.9-4-9.6-4c-4.1,0-7.3,1.4-9.7,4.2c-2.4,2.8-3.6,6.3-3.6,10.4v32.6h-13.2v-32c0-4.8-0.8-8.5-2.5-11.2
		c-1.7-2.6-4.9-4-9.6-4c-4.2,0-7.5,1.5-9.8,4.5c-2.4,3-3.6,6.6-3.6,10.9v31.8h-13.1V379.1z"/>
	<path class="st1" d="M295,379.1h13.2v32.1c0,5.1,0.9,8.8,2.8,11.3c1.9,2.5,5.1,3.7,9.6,3.7c4.4,0,7.9-1.5,10.4-4.4
		c2.5-2.9,3.8-7.1,3.8-12.6v-30.2h13.2v58.6h-13.2v-8.2c-4.3,6.2-10.4,9.4-18.1,9.4c-7.6,0-13.1-2.4-16.5-7.2s-5.2-10.9-5.2-18.1
		V379.1z"/>
	<path class="st1" d="M367.4,379.1h13.2v8.4c4.3-6.4,10.6-9.6,19-9.6c7.6,0,13,2.3,16.2,6.8c3.2,4.5,4.9,11,4.9,19.4v33.6h-13.2v-32
		c0-5.2-0.8-9-2.5-11.5c-1.7-2.4-4.8-3.7-9.5-3.7c-4.3,0-7.9,1.5-10.7,4.6s-4.2,7-4.2,11.8v30.7h-13.2V379.1z"/>
	<path class="st1" d="M439.9,358c1.5-1.5,3.4-2.3,5.6-2.3c2.2,0,4.1,0.8,5.7,2.3c1.6,1.5,2.4,3.4,2.4,5.6c0,2.2-0.8,4.1-2.4,5.7
		c-1.6,1.6-3.5,2.4-5.7,2.4c-2.2,0-4.1-0.8-5.6-2.4c-1.5-1.6-2.3-3.5-2.3-5.7C437.6,361.5,438.4,359.6,439.9,358z M438.9,379.1h13.2
		v58.6h-13.2V379.1z"/>
	<path class="st0" d="M485.2,371.2c7.7-7.7,17.4-11.5,29.1-11.5c9.7,0,18.2,2.8,25.4,8.3l-9.6,11.3c-4.1-3-9-4.5-14.6-4.5
		c-7.3,0-13.2,2.4-17.7,7.2c-4.5,4.8-6.8,10.6-6.8,17.4c0,6.8,2.2,12.6,6.7,17.4c4.5,4.8,10.1,7.2,16.8,7.2c6.9,0,12.6-2.1,17.2-6.2
		l10.1,11.4c-7.4,6.6-16.5,9.8-27.4,9.8c-11.7,0-21.4-3.8-29.1-11.5c-7.7-7.7-11.6-17.1-11.6-28.2
		C473.6,388.3,477.5,378.9,485.2,371.2z"/>
	<path class="st0" d="M557.6,378.5h15.9v11c1.1-3.1,3.4-5.9,6.8-8.4c3.4-2.5,8-3.8,13.9-3.8v17.3c-7,0-12.1,1.6-15.5,4.9
		c-3.4,3.3-5.1,8.4-5.1,15.5v22.7h-15.9V378.5z"/>
	<path class="st0" d="M610.9,386.3c5.9-6,13.3-9,22-9c7.9,0,14.7,3,20.3,8.9s8.4,13.1,8.4,21.4l-0.5,5.9h-42.6
		c2,7.6,7.4,11.4,16.2,11.4c6.2,0,11.6-1.3,16.2-4l5.9,12c-7,4-14.4,6-22.4,6c-9.1,0-16.8-2.7-23-8.1c-6.3-5.4-9.4-12.9-9.4-22.6
		C602,399.6,605,392.3,610.9,386.3z M646.1,402c-0.6-3.4-2.3-6.1-4.9-8.1c-2.6-2-5.7-3-9.2-3c-3.1,0-5.9,1-8.4,3s-4.3,4.7-5.3,8.1
		H646.1z"/>
	<path class="st0" d="M679.9,386.2c5.1-5.9,11.6-8.9,19.8-8.9c7,0,12.7,3,16.9,9v-26.5h15.9v78h-15.9V430c-4.3,5.9-9.9,8.9-16.9,8.9
		c-8.1,0-14.7-3-19.8-8.9c-5.1-5.9-7.6-13.2-7.6-21.9S674.8,392.1,679.9,386.2z M692.4,419.2c2.6,2.8,6.1,4.3,10.2,4.3
		c4.1,0,7.5-1.4,10.1-4.3c2.6-2.8,3.9-6.6,3.9-11.1s-1.3-8.3-3.9-11.1c-2.6-2.8-6-4.3-10.1-4.3c-4.2,0-7.6,1.4-10.2,4.3
		c-2.6,2.8-4,6.6-4,11.1S689.7,416.4,692.4,419.2z"/>
</g>
</svg>
